<?xml version="1.0" standalone="no"?>
<!DOCTYPE svg PUBLIC "-//W3C//DTD SVG 20010904//EN"
 "http://www.w3.org/TR/2001/REC-SVG-20010904/DTD/svg10.dtd">
<svg version="1.0" xmlns="http://www.w3.org/2000/svg"
 width="512.000000pt" height="512.000000pt" viewBox="0 0 512.000000 512.000000"
 preserveAspectRatio="xMidYMid meet">
<metadata>
Created by potrace 1.14, written by Peter Selinger 2001-2017
</metadata>
<g transform="translate(0.000000,512.000000) scale(0.100000,-0.100000)"
fill="#000000" stroke="none">
<path d="M1868 5100 c-68 -36 -73 -49 -149 -365 -22 -93 -42 -177 -44 -185 -6
-28 -86 -355 -125 -511 -22 -86 -41 -167 -44 -180 -4 -22 -64 -267 -161 -659
-20 -80 -38 -154 -40 -165 -3 -11 -25 -103 -50 -205 -26 -102 -48 -196 -51
-210 -3 -14 -16 -68 -29 -120 -22 -88 -100 -404 -110 -446 -2 -11 -9 -39 -16
-64 -6 -25 -12 -52 -14 -60 -2 -8 -26 -105 -54 -215 -27 -110 -73 -294 -101
-410 -28 -115 -75 -308 -104 -427 l-53 -217 -1 -166 c0 -92 4 -182 9 -200 20
-73 91 -125 169 -125 l37 0 1 -46 c3 -55 25 -92 69 -110 51 -22 513 -20 558 2
39 18 65 66 65 118 l0 36 925 0 c509 0 925 -3 926 -7 0 -5 2 -25 3 -45 2 -42
31 -87 67 -105 17 -9 96 -13 279 -13 235 0 257 2 287 20 40 24 54 50 56 106 1
44 1 44 38 44 51 0 88 15 125 52 48 46 56 90 52 294 l-4 179 -72 285 c-54 217
-180 727 -227 920 -2 8 -24 97 -49 196 -25 100 -47 192 -50 205 -3 13 -25 105
-50 204 -24 99 -63 259 -87 355 -23 96 -68 280 -100 409 -65 266 -65 274 5
285 44 8 110 42 138 72 9 11 49 75 89 144 106 183 133 233 136 253 4 24 -27
76 -49 83 -10 3 -18 10 -18 15 0 6 23 49 51 97 82 139 92 177 60 229 -26 42
-63 65 -104 65 -63 0 -92 -25 -156 -135 -86 -145 -76 -133 -103 -118 -68 36
-98 16 -172 -116 -60 -107 -68 -112 -79 -48 -3 17 -28 120 -55 230 -28 110
-53 211 -56 225 -3 14 -12 54 -21 90 -9 36 -18 72 -20 82 -21 100 -71 289 -81
310 -8 15 -31 40 -51 55 l-36 28 -661 2 c-638 2 -662 2 -698 -17z"/>
</g>
</svg>
